<svg xmlns="http://www.w3.org/2000/svg" width="1906" height="1582" fill="none" viewBox="0 0 1906 1582">
  <g clip-path="url(#a)">
    <mask id="b" width="2812" height="1582" x="-453" y="0" maskUnits="userSpaceOnUse" style="mask-type:luminance">
      <path fill="#fff" d="M-453 0h2812v1582H-453V0Z"/>
    </mask>
    <g mask="url(#b)">
      <path fill="#6F772E" fill-rule="evenodd" d="M1905.82 1419.21c0-89.91-426.59-162.8-952.817-162.8-526.228 0-952.82 72.89-952.82 162.8 0 89.91 426.592 162.8 952.82 162.8 526.227 0 952.817-72.89 952.817-162.8Z" clip-rule="evenodd"/>
      <path fill="#9FA85D" fill-rule="evenodd" d="M736.12 486.43c-2.492 0-4.984.17-7.476.631-17.42 2.426-31.246 15.794-42.651 29.793-40.232 49.25-64.265 110.656-102.7 161.75-16.198 22.49-37.835 43.767-65.439 45.587l100.879 100.345c58.849-6.09 111.708-45.612 143.529-96.075 32.444-49.857 46.845-110.074 51.661-170.266 1.198-13.368 1.797-27.973-4.816-40.128-9.609-17.031-30.623-23.097-49.84-27.973-7.716-1.844-15.431-3.664-23.147-3.664Z" clip-rule="evenodd"/>
      <path fill="#6E772D" fill-rule="evenodd" d="M1163.16 345.763c-6.95 0-13.87.267-20.75.825l29.43 125.261c9.01-12.761 22.81-21.883 34.84-32.219 10.8-10.335 20.41-22.49 27.6-35.882 6.61-12.155 10.83-28.58 3.02-40.128-6.01-8.516-17.42-11.549-28.23-13.975-14.92-2.523-30.43-3.882-45.91-3.882Zm20.18 161.556c-4.24 0-8.46.146-12.7.413l32.42 140.448c12.63-12.155 25.23-24.31 38.43-35.858 14.43-13.999 30.03-29.186 34.84-48.644 3-12.179 1.2-26.153-7.81-34.669-4.19-4.246-9.61-6.696-15.02-8.516-22.45-8.782-46.22-13.174-70.16-13.174Zm31.75 201.709c-10.47 0-20.97.97-31.25 3.008l28.83 136.809c20.41-15.187 39.03-33.432 55.25-53.496 9.01-10.335 16.82-21.908 19.82-35.882 2.99-13.368 0-29.187-10.81-37.096-5.41-4.245-12-6.696-18.62-7.909-13.99-3.542-28.61-5.434-43.22-5.434Zm97.98 178.466c-4.13 0-8.27.363-12.13.873-28.82 4.876-57.05 13.392-83.46 26.154l94.89 88.769c12.01-23.701 21.61-48.641 28.23-74.188 2.99-10.336 4.79-21.278-.6-30.4-5.63-8.758-16.27-11.208-26.93-11.208Z" clip-rule="evenodd"/>
      <path fill="#FCBB3B" fill-rule="evenodd" d="M1232.41 291.248c-29.06 0-57.77 8.637-80.39 27.367l43.83 630.575c40.85 0 81.68 0 121.31-9.122 39.04-9.729 77.47-29.793 101.5-63.249 54.64-77.831 47.45-177.544 37.24-266.947-7.81-68.102-27.63-133.146-56.45-194.576-22.24-46.193-57.05-88.772-103.3-110.049-19.84-9.122-41.89-13.999-63.74-13.999Z" clip-rule="evenodd"/>
      <path fill="#6E772D" fill-rule="evenodd" d="M1146.01 171.47c-24.61 0-49.84 4.27-73.25 12.155l64.84 132.564c21.03-31.613 34.84-68.101 40.85-105.803 1.8-10.336 2.4-22.491-4.22-30.4-6.59-7.302-18.02-8.516-28.22-8.516Zm318.23 753.362c-.38 0-.77 0-1.15.024-12.01 1.213-21.61 10.942-28.23 20.67-17.39 23.728-28.82 51.677-33.62 80.864l136.32-26.737c-11.4-20.67-25.83-40.128-42.63-57.766-8.14-8.249-19.09-17.055-30.69-17.055Z" clip-rule="evenodd"/>
      <path fill="#F9CC3D" fill-rule="evenodd" d="M1386.82 392.2c-73.25 28.579-148.32 52.283-225.19 69.921l.6 4.876c77.47-17.638 153.14-41.365 227.01-70.552-.6-1.213-1.82-3.032-2.42-4.245Zm75.07 348.416c-88.87 32.825-181.96 54.127-276.25 63.855l.6 4.853c93.69-9.729 186.78-31.006 275.65-63.856v-4.852Z" clip-rule="evenodd"/>
      <path fill="#FCBB3B" fill-rule="evenodd" d="M591.584 94.999c-1.869 0-3.642 1.261-4.073 3.518-1.199 2.426 0 4.852 2.396 6.065l116.501 43.185h1.797c1.821 0 3.618-1.213 4.816-3.057.599-2.426-.599-5.459-2.995-6.065L593.501 95.46a4.136 4.136 0 0 0-1.917-.461Z" clip-rule="evenodd"/>
      <path fill="#B2BF6D" fill-rule="evenodd" d="M984.146 38.033c-9.585 0-19.121 1.868-27.915 5.75-30.024 12.155-45.623 41.948-48.043 73.585-28.826.606-57.052 7.885-87.076 9.122-4.194-17.031-10.208-33.456-21.015-46.824-10.734-12.01-25.686-20.792-41.908-20.792-1.055 0-2.085.048-3.139.121-12.604 1.213-24.01 8.492-33.618 15.794-16.821 12.786-22.836 28.58-27.628 47.431-4.816 19.458-6.613 38.915-4.193 58.373-43.85 12.761-90.096 19.457-134.544 28.579-11.382 2.427-146.693 32.753-146.525 34.039-2.396-7.885-4.792-17.007-9.01-24.31-6.709-11.16-17.635-17.686-29.736-17.686-3.043 0-6.158.412-9.297 1.261-15.935 4.198-29.569 27.779-22.021 44.18-7.068-14.314-22.284-34.451-37.5-34.451-6.158 0-12.316 3.275-17.947 11.573-11.405 16.4-10.207 41.947-9.009 61.405 1.797 27.973 4.217 56.553 11.405 83.92 9.01 37.702 18.019 55.922 59.449 62.012 58.514 8.345 117.004 12.106 175.518 12.106 69.417 0 138.834-5.289 208.25-14.533-22.236 128.294-43.25 260.251-44.448 390.364 0 4.27 0 8.516 1.797 12.155 2.995 6.696 11.405 9.729 18.618 12.179 58.298 16.547 118.657 22.151 179.208 22.151 26.166 0 52.356-1.043 78.426-2.693 40.235-2.45 79.265-4.877 117.695-15.818 6.26-1.723 12.18-2.499 17.9-2.499 28.37 0 51.21 19.142 78.19 35.324 21.09 13.004 45.65 24.213 69.99 24.213 7.55 0 15.1-1.068 22.5-3.542-34.24-48.644-46.24-108.836-46.84-167.815-.6-27.974 6.01-56.553 2.99-83.896-2.39-25.547-8.98-51.094-11.4-76.617-9.61-84.526-25.21-168.446-48.05-250.522-10.8-39.522-23.41-79.043-41.43-115.532-7.81-15.819-16.22-31.613-28.22-44.398-5.42-5.459-36.64-24.917-36.64-31.006-1.2-18.245-2.4-37.096-10.21-53.52-11.45-24.99-38.14-39.183-64.574-39.183Z" clip-rule="evenodd"/>
      <path fill="#B2BF6D" fill-rule="evenodd" d="M1699.52 676.202c-4.05 0-8.39 1.334-13.01 4.221-11.41 7.303-12.63 23.097-13.23 36.489-2.99 91.805-46.84 200.641-126.71 248.679-39.2 23.363-81.47 36.489-123.11 36.489-45.1 0-89.48-15.406-128.51-49.857-15.62-12.762-89.49-188.511-67.86-195.182-83.48 24.916-169.36 43.16-255.835 54.709-6.015 33.456-17.42 59.585-18.019 93.648-.599 10.336-1.198 117.962-4.193 118.562-34.313 11.99-425.438 143.61-439.24 143.61-.215 0-.335-.03-.359-.1-19.121-51.63-76.246-129.82-137.42-129.82-2.228 0-4.48.09-6.709.31-20.439 63.23-31.845 134.99-33.642 201.25-1.198 35.28 1.198 71.16 8.411 105.2 1.797 9.12 15.623 74.19 24.632 75.4 36.182 5.31 72.508 6.96 108.905 6.96 58.586 0 117.364-4.24 176.19-4.24 21.661 0 43.346.58 65.007 2.16 82.284 6.06 163.945 16.4 246.229 20.67 69.053 3.64 139.313 11.55 208.993 12.15 5.1.1 10.21.17 15.31.17 23.72 0 47.45-1.09 71.17-2.59 73.25-5.49 147.72-18.85 216.18-46.22 212.61-84.53 294.27-323.48 284.66-539.354-1.1-25.669-12.31-193.314-57.84-193.314Z" clip-rule="evenodd"/>
      <path fill="#DEEA8B" fill-rule="evenodd" d="M875.337 441.717c-4.074 0-8.123.121-12.173.339-51.062 2.427-100.303 20.671-144.727 46.825-18.019 109.442-33.043 220.122-34.241 330.171 0 4.27 0 8.516 1.797 12.155 2.995 6.696 11.405 9.729 18.618 12.18 58.753 16.643 119.376 22.199 180.43 22.199 59.377 0 119.189-5.265 178.109-10.651 12.6-1.213 25.8-3.057 38.43-5.483-1.22-69.921-7.81-139.236-20.44-207.944-7.78-43.185-17.99-86.952-43.22-122.834-36.64-50.804-100.283-76.957-162.583-76.957Z" clip-rule="evenodd"/>
      <path fill="#FCBB3B" fill-rule="evenodd" d="M711.224 9.114c64.864 0 118.298 54.127 118.298 119.802 0 66.282-53.434 119.778-118.298 119.778-65.463 0-118.322-53.496-118.322-119.778 0-65.675 52.859-119.802 118.322-119.802Zm0-9.098c-70.878 0-127.931 57.742-127.931 128.9 0 71.741 57.053 129.507 127.931 129.507 70.255 0 127.308-57.766 127.308-129.507 0-71.158-57.053-128.9-127.308-128.9Zm272.035 9.098c65.461 0 118.321 54.127 118.321 119.802 0 66.282-52.86 119.778-118.321 119.778-64.864 0-118.298-53.496-118.298-119.778 0-65.675 53.434-119.802 118.298-119.802Zm0-9.098c-70.255 0-127.307 57.742-127.307 128.9 0 71.741 57.052 129.507 127.307 129.507 70.881 0 127.931-57.766 127.931-129.507 0-71.158-57.05-128.9-127.931-128.9Z" clip-rule="evenodd"/>
      <path fill="#FCBB3B" fill-rule="evenodd" d="M1106.35 109.895c-1.94 0-3.69 1.189-4.17 3.203-1.2 3.032.6 5.483 3 6.089l76.86 20.064c12.61 3.033 21.62 15.819 19.82 29.187l4.82.606h4.79c1.8-17.638-9.61-34.669-27.03-38.915l-76.87-20.064c-.41-.097-.81-.17-1.22-.17ZM847.254 96.6c-.695 0-1.39.024-2.109.073-9.609.63-16.222 8.516-16.222 9.122-1.797 1.844-1.797 4.877.599 6.696.599.607 1.797.607 2.995.607 1.222 0 2.42-.607 3.619-1.82 0 0 4.193-4.876 10.207-4.876a11.496 11.496 0 0 1 1.582-.097c3.666 0 7.356 1.868 11.022 5.58.815.558 1.869.849 2.947.849 1.318 0 2.684-.461 3.666-1.456 1.797-1.819 1.797-4.876 0-6.696-5.942-5.483-11.909-7.982-18.306-7.982Z" clip-rule="evenodd"/>
      <path fill="#F4EDD7" fill-rule="evenodd" d="M442.184 343.556c-16.821 1.213-33.642 2.426-50.463 3.032 1.821 6.09 4.217 12.786 6.613 18.851 2.996 6.09 7.213 12.786 13.826 14.606.599.072 1.222.097 1.845.097 4.313 0 8.89-1.771 12.556-4.974 3.594-3.639 6.014-8.516 8.41-13.368a5997.962 5997.962 0 0 1 7.213-18.244Zm64.84-6.696c-13.203 1.819-26.406 3.056-39.633 4.27 1.797 7.278 4.817 13.974 9.01 20.67 2.516 3.567 6.709 7.109 10.831 7.109.79 0 1.605-.122 2.396-.413 2.396-1.237 4.193-3.663 5.391-5.483 4.816-8.515 9.01-17.031 12.005-26.153Zm58.274-6.066c-11.43 1.213-22.835 2.426-34.241 3.033 1.198 7.909 4.193 15.818 8.411 21.884 1.964 2.984 5.127 5.968 8.506 5.968.767 0 1.534-.146 2.3-.485 1.797-.607 2.995-2.427 4.194-4.27 4.816-7.885 8.41-17.008 10.83-26.13Zm52.237-6.696c-10.807 2.426-22.213 4.246-33.642 5.483 1.222 6.672 3.618 13.368 7.811 18.827 1.965 2.984 5.128 5.968 8.195 5.968.671 0 1.366-.145 2.013-.485 2.42-.607 3.618-2.426 4.217-4.246 4.792-7.909 9.009-16.425 11.406-25.547Z" clip-rule="evenodd"/>
      <path fill="#818945" fill-rule="evenodd" d="M301.41 235.69c-7.74 0-15.456 5.701-12.364 17.881 1.437 5.871 6.805 10.577 12.292 10.577a9.291 9.291 0 0 0 3.906-.849c3.019-1.213 4.816-3.663 6.613-6.089 7.38-13.975-1.534-21.52-10.447-21.52Zm68.482-12.786c-7.74 0-15.455 5.726-12.388 17.881 1.437 5.895 7.212 10.602 12.843 10.602a9.292 9.292 0 0 0 3.978-.873c2.396-.607 4.193-3.033 5.99-6.066 7.38-13.998-1.533-21.544-10.423-21.544Z" clip-rule="evenodd"/>
      <path fill="#FCBB3B" fill-rule="evenodd" d="M1177.25 351.465c-54.65 53.496-96.71 121.597-117.12 195.788-24.61 88.166-19.82 185.454 17.42 269.373 17.42 40.735 43.85 79.65 81.68 102.747 23.56 14.338 50.85 21.544 78.14 21.544 17.95 0 35.87-3.106 52.77-9.365-12.01-13.392-22.22-28.58-28.83-45.611-72.05-10.335-128.51-66.282-151.94-137.416-40.23-122.228 10.21-234.704 84.68-328.959-4.79-22.49-10.81-45.611-16.8-68.101Z" clip-rule="evenodd"/>
      <path fill="#F9CC3D" fill-rule="evenodd" d="M1418.66 496.183c-13.82 2.427-27.62 5.459-42.05 7.91-44.42 8.491-88.27 18.22-132.72 26.735-11.41 35.883 7.21 108.861 14.42 135.597 7.22 27.367 19.22 55.34 42.63 69.314 9.73 5.75 20.49 8.346 31.42 8.346 24.89 0 50.63-13.392 66.49-33.262 23.41-29.186 29.42-68.101 30.02-105.197 0-37.702-2.39-72.954-10.21-109.443Z" clip-rule="evenodd"/>
      <path fill="#6E772D" fill-rule="evenodd" d="M370.371 1037.79c-1.677 0-3.355.07-5.056.17-2.42 8.52-5.415 17.64-7.811 26.13l1.198 26.15c10.207-7.9 19.816-17.03 28.226-27.36 2.996-3.64 6.015-7.28 7.812-12.16.599-3.03.599-6.09 0-9.12-8.003-2.52-16.03-3.81-24.369-3.81Zm35.128 50.54c-1.007 0-1.989.05-2.947.1-15.024 0-30.048 3.03-43.85 8.51l32.42 63.83c7.811-7.28 15.623-15.19 23.434-22.49 5.392-5.48 11.406-10.33 15-17.64 3.019-6.67 4.217-15.18 0-21.88-4.888-7.69-14.688-10.43-24.057-10.43Z" clip-rule="evenodd"/>
      <path fill="#B2BF6D" fill-rule="evenodd" d="M1041.51 524.763c-30.62 3.639-61.246 6.065-91.868 7.909a1448.834 1448.834 0 0 1-76.773 2.038c-53.65 0-107.18-2.984-160.447-8.734 0 1.213-.599 3.033-.599 4.852 52.62 5.508 105.527 8.346 158.722 8.346 23.314 0 46.653-.533 70.087-1.649 34.816-1.213 69.058-4.246 103.898-8.516-1.2-1.213-1.82-3.033-3.02-4.246Zm39.03 114.295c-43.22 6.09-87.073 10.36-130.899 12.786a1311.998 1311.998 0 0 1-75.622 2.159c-58.227 0-116.358-3.712-174.201-10.068-1.222 0-2.42-.607-3.618-.607 0 1.82-.599 3.033-.599 4.852 60.814 6.842 121.94 10.263 183.426 10.263 20.511 0 41.022-.364 61.605-1.14 46.845-2.427 94.288-7.279 141.138-13.975 0-.606-.63-1.213-.63-1.82 0-1.213 0-1.819-.6-2.45Zm16.23 116.77c-49.25 7.278-97.887 12.761-147.128 15.187a1361.605 1361.605 0 0 1-78.954 2.281c-57.124 0-114.129-3.518-170.87-10.19-4.816-.607-9.009-1.213-13.825-1.82v4.877c62.827 7.715 126.349 11.694 190.015 11.694 21.517 0 43.083-.437 64.624-1.359 52.236-2.45 104.498-7.909 156.138-15.818v-4.852Z" clip-rule="evenodd"/>
      <path fill="#6E772D" fill-rule="evenodd" d="M777.885 108.246c-1.198 0-2.396 7.278-4.816 17.637-1.797 4.853-3.594 11.549-6.589 17.614-2.301 5.216-7.309 10.991-12.988 10.991-.287 0-.551 0-.838-.049-6.015-.607-11.406-6.065-15.623-11.548-3.594-5.459-6.59-10.942-7.788-16.401-3.019-9.729-2.42-16.425-3.618-17.031-1.198 0-4.193 6.671-2.396 18.851 1.198 5.458 3.594 12.155 7.811 18.851 4.194 6.065 10.208 13.974 21.614 15.187.575.073 1.126.097 1.677.097 4.72 0 8.914-2.232 12.149-4.949 3.594-3.664 5.391-7.303 7.188-10.942 3.019-7.303 4.217-13.999 4.816-19.457 1.797-11.573.599-18.245-.599-18.851ZM957.956 83.28c-.695 0-2.899 7.182-2.324 18.876.599 5.483 1.821 12.761 4.217 20.064 1.198 3.663 2.995 7.909 6.589 11.548 3.619 3.664 8.411 6.697 14.425 6.697 6.015-.607 10.208-4.853 13.203-7.91 3.019-3.639 4.816-7.302 6.614-10.941 3.59-6.697 6.01-13.975 6.61-19.458 2.4-11.548 1.2-18.851 0-18.851s-1.79 6.696-5.41 17.031c-1.8 5.459-4.196 11.549-7.814 17.638-3.594 6.066-8.41 13.975-13.802 13.975-6.014 0-10.806-6.066-13.203-12.155-2.42-6.696-4.217-13.392-5.415-18.851-2.396-10.335-1.797-17.638-3.594-17.638-.024-.024-.048-.024-.096-.024ZM854.155 264.512s-2.42.607-6.015 1.82l-16.222 5.483c-7.188 2.426-16.198 4.852-26.405 7.885-9.609 3.057-21.638 6.696-34.241 10.335-25.831 7.303-56.454 13.999-91.27 21.302-34.84 6.065-72.675 12.155-113.506 17.007-80.487 9.729-154.336 13.392-207.794 16.425a19271.893 19271.893 0 0 0-63.067 3.639l-14.401.631v1.213h14.401c15.024 0 36.637-.607 63.067-1.213 53.458-2.451 127.307-5.483 208.393-15.212 40.831-4.877 79.265-10.942 114.105-17.638 34.217-7.303 65.439-14.581 91.27-22.49 12.628-3.664 24.033-7.909 34.241-10.942 10.207-3.057 18.618-6.696 25.806-9.122l16.222-6.696c3.619-1.214 5.416-1.82 5.416-2.427Z" clip-rule="evenodd"/>
      <path fill="#6E772D" fill-rule="evenodd" d="M844.043 233.482c-.024 0-.072 0-.096.024-1.821.607 4.193 12.762 9.01 28.58 5.391 15.188 2.396 28.58 3.594 29.187.599 0 2.396-3.057 3.594-9.123 1.198-5.483.599-13.392-1.797-21.908-5.248-15.964-12.796-26.76-14.305-26.76Z" clip-rule="evenodd"/>
      <path fill="#F9E9CD" fill-rule="evenodd" d="m507.024 558.195-54.633 47.431 123.714 178.781 79.864-35.882-148.945-190.33Z" clip-rule="evenodd"/>
      <path fill="#F9E9CD" fill-rule="evenodd" d="M903.995 587.382 633.756 755.197l18.618 10.966L959.25 634.206l-55.255-46.824Z" clip-rule="evenodd"/>
      <path fill="#FCBB3B" fill-rule="evenodd" d="M453.973 586.993c-4.241 0-8.195 3.3-8.195 8.298L433.773 967.41c-.599 3.057.599 5.483 2.995 7.303l166.965 140.477c1.198.6 2.396 1.21 4.193 1.82l63.067 12.76c.287.31.742.46 1.198.46.455 0 .886-.15 1.198-.46l288.856-40.13c4.193-.61 7.213-4.25 7.213-8.52V630.567c0-5.289-3.738-8.662-7.98-8.662-1.126 0-2.3.243-3.426.752L685.993 742.435c-.839.437-1.989.874-3.235.874a4.478 4.478 0 0 1-1.558-.267l-54.057-7.909c-1.797 0-2.995-.607-4.193-1.82L459.58 589.201c-1.677-1.528-3.666-2.208-5.607-2.208Z" clip-rule="evenodd"/>
      <path fill="#F9CC3D" fill-rule="evenodd" d="m621.728 732.1-17.396 383.09 1.198 1.21 66.661 13.97 2.995-.6 13.802-388.548-5.392 2.426-58.849-8.515-3.019-3.033Z" clip-rule="evenodd"/>
      <path fill="#9FA85D" fill-rule="evenodd" d="M456.704 734.939c-6.038 0-11.956 1.116-17.539 3.857-22.812 10.942-28.227 50.464-30.623 72.954-1.198 17.031-1.797 34.669 4.217 50.488 10.208 27.949 33.618 51.07 63.043 56.528 2.731.51 5.583.801 8.386.801 3.978 0 7.908-.582 11.43-2.014 6.014-2.426 11.406-7.278 12.628-13.974.599-4.877-1.222-10.336-3.619-14.606-5.99-13.974-14.999-26.735-25.806-37.702 1.749 1.796 4.984 2.596 9.033 2.596 16.582 0 46.917-13.125 47.396-23.873 1.222-16.4-46.221-29.186-58.849-32.219 12.005-4.27 28.226-5.483 38.434-11.548 6.014-3.057 10.807-9.122 10.807-15.818 0-10.336-10.807-17.032-20.415-20.671-14.114-6.259-31.797-14.799-48.523-14.799Zm657.556-94.668c-.22 0-.46 0-.67.024-44.45 0-85.28 29.793-116.505 58.98-68.458 63.224-157.954 103.353-249.823 112.475-4.217 9.122 1.198 20.064 8.986 26.153 8.41 5.484 18.618 6.697 28.227 7.91-16.198 12.155-28.826 29.186-35.416 48.644 10.975 10.165 25.4 15.697 39.609 15.697 3.642 0 7.284-.364 10.831-1.116-13.802 15.211-28.826 39.521-14.401 54.733 5.942 6.526 15.167 8.079 24.297 8.079 1.917 0 3.833-.073 5.726-.17 127.907-1.819 354.319-38.308 366.919-201.878 1.2-11.548.6-23.703-.59-35.882-3.6-37.484-25.6-93.649-67.19-93.649ZM365.315 1038.57c-20.439 62.62-31.845 134.38-33.642 200.64-1.198 35.28 1.198 71.16 8.411 105.2 1.797 9.12 15.623 74.19 24.632 75.4 14.401 1.82 28.227 3.64 42.628 4.88 4.816-14 8.41-27.98 10.806-41.98 7.812-41.94 7.213-84.5 4.218-126.47-6.015-75.4-21.039-152-57.053-217.67Z" clip-rule="evenodd"/>
    </g>
  </g>
  <defs>
    <clipPath id="a">
      <path fill="#fff" d="M0 0h1906v1582H0z"/>
    </clipPath>
  </defs>
</svg>
